# WaveFront *.obj file (generated by Cinema 4D)

mtllib ./OBJ.mtl

v 177.93484497070312 -0.00000000000001 -177.50920104980469
v -177.90087890625 -0.00000000000001 -177.50920104980469
v 177.93484497070312 0.00000000000001 179.07131958007812
v -177.90087890625 0.00000000000001 179.07131958007812
# 4 vertices

vn 0 1 0
vn 0 1 0
vn 0 1 0
vn 0 1 0
# 4 normals

vt 0 1 0
vt 1 1 0
vt 1 0 0
vt 0 0 0
# 4 texture coordinates

g Plane001
usemtl default
f 1/4/1 2/3/1 4/2/1 3/1/1

v 33.90122604370117 0 98.39466094970703
v 10.75952243804932 0 98.39466094970703
v 10.75952243804932 0 157.73236083984375
v 33.90122604370117 0 157.73236083984375
v 33.90122604370117 76.19999694824219 98.39466094970703
v 10.75952243804932 76.19999694824219 98.39466094970703
v 10.75952243804932 76.19999694824219 157.73236083984375
v 33.90122604370117 76.19999694824219 157.73236083984375
v -5.85503482818604 0 179.46420288085938
v -5.85503482818604 0 164.85289001464844
v -159.17582702636719 0 164.85289001464844
v -159.17582702636719 0 81.78010559082031
v -97.82846832275391 0 81.78010559082031
v -97.82846832275391 0 50.33112335205078
v -110.88277435302734 0 50.33112335205078
v -110.88277435302734 0 68.263671875
v -159.17582702636719 0 68.263671875
v -159.17582702636719 -0.00000000000001 26.59614753723145
v -178.52775573730469 -0.00000000000001 26.59614753723145
v -178.52775573730469 0 179.46420288085938
v -5.85503482818604 76.19999694824219 179.46420288085938
v -5.85503482818604 76.19999694824219 164.85289001464844
v -159.17582702636719 76.19999694824219 164.85289001464844
v -159.17582702636719 76.19999694824219 81.78010559082031
v -97.82846832275391 76.19999694824219 81.78010559082031
v -97.82846832275391 76.19999694824219 50.33112335205078
v -110.88277435302734 76.19999694824219 50.33112335205078
v -110.88277435302734 76.19999694824219 68.263671875
v -159.17582702636719 76.19999694824219 68.263671875
v -159.17582702636719 76.19999694824219 26.59614753723145
v -178.52775573730469 76.19999694824219 26.59614753723145
v -178.52775573730469 76.19999694824219 179.46420288085938
v -178.52783203125 -0.00000000000001 26.59614753723145
v 14.31969261169434 -0.00000000000001 26.59614753723145
v 14.31969261169434 -0.00000000000001 -70.71768951416016
v -4.66836309432983 -0.00000000000001 -70.71768951416016
v -4.66836309432983 -0.00000000000001 10.57496452331543
v -159.53977966308594 -0.00000000000001 10.57496452331543
v -159.53977966308594 -0.00000000000002 -160.91098022460938
v -125.71728515625 -0.00000000000002 -160.91098022460938
v -125.71728515625 -0.00000000000002 -177.52554321289062
v -178.52783203125 -0.00000000000002 -177.52554321289062
v -178.52783203125 76.19999694824219 26.59614753723145
v 14.31969261169434 76.19999694824219 26.59614753723145
v 14.31969261169434 76.19999694824219 -70.71768951416016
v -4.66836309432983 76.19999694824219 -70.71768951416016
v -4.66836309432983 76.19999694824219 10.57496452331543
v -159.53977966308594 76.19999694824219 10.57496452331543
v -159.53977966308594 76.19999694824219 -160.91098022460938
v -125.71728515625 76.19999694824219 -160.91098022460938
v -125.71728515625 76.19999694824219 -177.52554321289062
v -178.52783203125 76.19999694824219 -177.52554321289062
v 16.09983062744141 -0.00000000000001 -109.88056945800781
v 16.09983062744141 -0.00000000000002 -177.52554321289062
v -42.05111694335938 -0.00000000000002 -177.52554321289062
v -42.05111694335938 -0.00000000000002 -161.50436401367188
v -2.88823223114014 -0.00000000000002 -161.50436401367188
v -2.88823223114014 -0.00000000000001 -109.88056945800781
v 16.09983062744141 76.19999694824219 -109.88056945800781
v 16.09983062744141 76.19999694824219 -177.52554321289062
v -42.05111694335938 76.19999694824219 -177.52554321289062
v -42.05111694335938 76.19999694824219 -161.50436401367188
v -2.88823223114014 76.19999694824219 -161.50436401367188
v -2.88823223114014 76.19999694824219 -109.88056945800781
v 55.85609817504883 -0.00000000000002 -178.11892700195312
v 55.85609817504883 -0.00000000000001 -109.28719329833984
v 70.09714508056641 -0.00000000000001 -109.28719329833984
v 70.09714508056641 -0.00000000000002 -162.09774780273438
v 160.29045104980469 -0.00000000000002 -162.09774780273438
v 160.29045104980469 -0.00000000000002 -120.56135559082031
v 96.79910278320312 -0.00000000000002 -120.56135559082031
v 96.79910278320312 -0.00000000000001 -108.69381713867188
v 160.29045104980469 -0.00000000000001 -108.69381713867188
v 160.29045104980469 0 72.28617095947266
v 49.32895278930664 0 72.28617095947266
v 49.32895278930664 0 88.90072631835938
v 160.88383483886719 0 88.90072631835938
v 160.88383483886719 0 163.66621398925781
v 49.32895278930664 0 163.66621398925781
v 49.32895278930664 0 179.46418762207031
v 177.49838256835938 0 179.46418762207031
v 177.49838256835938 -0.00000000000002 -178.11892700195312
v 157.32357788085938 -0.00000000000002 -178.11892700195312
v 55.85609817504883 76.19999694824219 -178.11892700195312
v 55.85609817504883 76.19999694824219 -109.28719329833984
v 70.09714508056641 76.19999694824219 -109.28719329833984
v 70.09714508056641 76.19999694824219 -162.09774780273438
v 160.29045104980469 76.19999694824219 -162.09774780273438
v 160.29045104980469 76.19999694824219 -120.56135559082031
v 96.79910278320312 76.19999694824219 -120.56135559082031
v 96.79910278320312 76.19999694824219 -108.69381713867188
v 160.29045104980469 76.19999694824219 -108.69381713867188
v 160.29045104980469 76.19999694824219 72.28617095947266
v 49.32895278930664 76.19999694824219 72.28617095947266
v 49.32895278930664 76.19999694824219 88.90072631835938
v 160.88383483886719 76.19999694824219 88.90072631835938
v 160.88383483886719 76.19999694824219 163.66621398925781
v 49.32895278930664 76.19999694824219 163.66621398925781
v 49.32895278930664 76.19999694824219 179.46418762207031
v 177.49838256835938 76.19999694824219 179.46418762207031
v 177.49838256835938 76.19999694824219 -178.11892700195312
v 157.32357788085938 76.19999694824219 -178.11892700195312
# 102 vertices

vn 0 0 -1
vn 0 0 -1
vn 0 0 -1
vn 0 0 -1
vn 0 0 -1
vn 0 0 -1
vn 0 0 1
vn 0 0 1
vn 0 0 1
vn 0 0 1
vn 0 0 1
vn 0 0 1
vn 0 -1 0
vn 0 -1 0
vn 0 -1 0
vn 0 -1 0
vn 0 -1 0
vn 0 -1 0
vn 0 1 0
vn 0 1 0
vn 0 1 0
vn 0 1 0
vn 0 1 0
vn 0 1 0
vn 1 0 0
vn 1 0 0
vn 1 0 0
vn 1 0 0
vn 1 0 0
vn 1 0 0
vn 1 0 0
vn 1 0 0
vn 1 0 0
vn 1 0 0
vn 1 0 0
vn 1 0 0
vn 0 0 -1
vn 0 0 -1
vn 0 0 -1
vn 0 0 -1
vn 0 0 -1
vn 0 0 -1
vn 0 0 -1
vn 0 0 -1
vn 0 0 -1
vn 0 0 -1
vn 0 0 -1
vn 0 0 -1
vn -1 0 0
vn -1 0 0
vn -1 0 0
vn -1 0 0
vn -1 0 0
vn -1 0 0
vn 0 0 1
vn 0 0 1
vn 0 0 1
vn 0 0 1
vn 0 0 1
vn 0 0 1
vn 0 -1 0
vn 0 -1 0
vn 0 -1 0
vn 0 -1 0
vn 0 -1 0
vn 0 -1 0
vn 0 -1 0
vn 0 -1 0
vn 0 -1 0
vn 0 -1 0
vn 0 -1 0
vn 0 -1 0
vn 0 -1 0
vn 0 -1 0
vn 0 -1 0
vn 0 -1 0
vn 0 -1 0
vn 0 -1 0
vn 0 -1 0
vn 0 -1 0
vn 0 -1 0
vn 0 -1 0
vn 0 -1 0
vn 0 -1 0
vn 0 -1 0
vn 0 -1 0
vn 0 -1 0
vn 0 -1 0
vn 0 -1 0
vn 0 -1 0
vn 0 1 0
vn 0 1 0
vn 0 1 0
vn 0 1 0
vn 0 1 0
vn 0 1 0
vn 0 1 0
vn 0 1 0
vn 0 1 0
vn 0 1 0
vn 0 1 0
vn 0 1 0
vn 0 1 0
vn 0 1 0
vn 0 1 0
vn 0 1 0
vn 0 1 0
vn 0 1 0
vn 0 1 0
vn 0 1 0
vn 0 1 0
vn 0 1 0
vn 0 1 0
vn 0 1 0
vn 0 1 0
vn 0 1 0
vn 0 1 0
vn 0 1 0
vn 0 1 0
vn 0 1 0
vn 0 0 -1
vn 0 0 -1
vn 0 0 -1
vn 0 0 -1
vn 0 0 -1
vn 0 0 -1
vn 1 0 0
vn 1 0 0
vn 1 0 0
vn 1 0 0
vn 1 0 0
vn 1 0 0
vn 0 0 -1
vn 0 0 -1
vn 0 0 -1
vn 0 0 -1
vn 0 0 -1
vn 0 0 -1
vn -1 0 0
vn -1 0 0
vn -1 0 0
vn -1 0 0
vn -1 0 0
vn -1 0 0
vn 0 -1 0
vn 0 -1 0
vn 0 -1 0
vn 0 -1 0
vn 0 -1 0
vn 0 -1 0
vn 0 -1 0
vn 0 -1 0
vn 0 -1 0
vn 0 -1 0
vn 0 -1 0
vn 0 -1 0
vn 0 -1 0
vn 0 -1 0
vn 0 -1 0
vn 0 -1 0
vn 0 -1 0
vn 0 -1 0
vn 0 -1 0
vn 0 -1 0
vn 0 -1 0
vn 0 -1 0
vn 0 -1 0
vn 0 -1 0
vn 0 1 0
vn 0 1 0
vn 0 1 0
vn 0 1 0
vn 0 1 0
vn 0 1 0
vn 0 1 0
vn 0 1 0
vn 0 1 0
vn 0 1 0
vn 0 1 0
vn 0 1 0
vn 0 1 0
vn 0 1 0
vn 0 1 0
vn 0 1 0
vn 0 1 0
vn 0 1 0
vn 0 1 0
vn 0 1 0
vn 0 1 0
vn 0 1 0
vn 0 1 0
vn 0 1 0
vn 0 0 -1
vn 0 0 -1
vn 0 0 -1
vn 0 0 -1
vn 0 0 -1
vn 0 0 -1
vn -1 0 0
vn -1 0 0
vn -1 0 0
vn -1 0 0
vn -1 0 0
vn -1 0 0
vn 0 0 1
vn 0 0 1
vn 0 0 1
vn 0 0 1
vn 0 0 1
vn 0 0 1
vn 0 -1 0
vn 0 -1 0
vn 0 -1 0
vn 0 -1 0
vn 0 -1 0
vn 0 -1 0
vn 0 -1 0
vn 0 -1 0
vn 0 -1 0
vn 0 -1 0
vn 0 -1 0
vn 0 -1 0
vn 0 1 0
vn 0 1 0
vn 0 1 0
vn 0 1 0
vn 0 1 0
vn 0 1 0
vn 0 1 0
vn 0 1 0
vn 0 1 0
vn 0 1 0
vn 0 1 0
vn 0 1 0
vn 0 0 1
vn 0 0 1
vn 0 0 1
vn 0 0 1
vn 0 0 1
vn 0 0 1
vn -1 0 0
vn -1 0 0
vn -1 0 0
vn -1 0 0
vn -1 0 0
vn -1 0 0
vn -1 0 0
vn -1 0 0
vn -1 0 0
vn -1 0 0
vn -1 0 0
vn -1 0 0
vn -1 0 0
vn -1 0 0
vn -1 0 0
vn -1 0 0
vn -1 0 0
vn -1 0 0
vn 0 0 1
vn 0 0 1
vn 0 0 1
vn 0 0 1
vn 0 0 1
vn 0 0 1
vn 1 0 0
vn 1 0 0
vn 1 0 0
vn 1 0 0
vn 1 0 0
vn 1 0 0
vn 0 0 -1
vn 0 0 -1
vn 0 0 -1
vn 0 0 -1
vn 0 0 -1
vn 0 0 -1
vn 0 0 -1
vn 0 0 -1
vn 0 0 -1
vn 0 0 -1
vn 0 0 -1
vn 0 0 -1
vn 0 -1 0
vn 0 -1 0
vn 0 -1 0
vn 0 -1 0
vn 0 -1 0
vn 0 -1 0
vn 0 -1 0
vn 0 -1 0
vn 0 -1 0
vn 0 -1 0
vn 0 -1 0
vn 0 -1 0
vn 0 -1 0
vn 0 -1 0
vn 0 -1 0
vn 0 -1 0
vn 0 -1 0
vn 0 -1 0
vn 0 -1 0
vn 0 -1 0
vn 0 -1 0
vn 0 -1 0
vn 0 -1 0
vn 0 -1 0
vn 0 -1 0
vn 0 -1 0
vn 0 -1 0
vn 0 -1 0
vn 0 -1 0
vn 0 -1 0
vn 0 -1 0
vn 0 -1 0
vn 0 -1 0
vn 0 -1 0
vn 0 -1 0
vn 0 -1 0
vn 0 -1 0
vn 0 -1 0
vn 0 -1 0
vn 0 -1 0
vn 0 -1 0
vn 0 -1 0
vn 0 -1 0
vn 0 -1 0
vn 0 -1 0
vn 0 -1 0
vn 0 -1 0
vn 0 -1 0
vn 0 -1 0
vn 0 -1 0
vn 0 -1 0
vn 0 1 0
vn 0 1 0
vn 0 1 0
vn 0 1 0
vn 0 1 0
vn 0 1 0
vn 0 1 0
vn 0 1 0
vn 0 1 0
vn 0 1 0
vn 0 1 0
vn 0 1 0
vn 0 1 0
vn 0 1 0
vn 0 1 0
vn 0 1 0
vn 0 1 0
vn 0 1 0
vn 0 1 0
vn 0 1 0
vn 0 1 0
vn 0 1 0
vn 0 1 0
vn 0 1 0
vn 0 1 0
vn 0 1 0
vn 0 1 0
vn 0 1 0
vn 0 1 0
vn 0 1 0
vn 0 1 0
vn 0 1 0
vn 0 1 0
vn 0 1 0
vn 0 1 0
vn 0 1 0
vn 0 1 0
vn 0 1 0
vn 0 1 0
vn 0 1 0
vn 0 1 0
vn 0 1 0
vn 0 1 0
vn 0 1 0
vn 0 1 0
vn 0 1 0
vn 0 1 0
vn 0 1 0
vn 0 1 0
vn 0 1 0
vn 0 1 0
# 384 normals

g Line005
usemtl default
f 10//5 9//5 5//5
f 5//5 6//5 10//5
f 12//11 11//11 7//11
f 7//11 8//11 12//11
f 8//17 7//17 6//17
f 6//17 5//17 8//17
f 10//23 11//23 12//23
f 12//23 9//23 10//23
f 26//29 25//29 13//29
f 13//29 14//29 26//29
f 30//29 29//29 17//29
f 17//29 18//29 30//29
f 31//5 30//5 18//5
f 18//5 19//5 31//5
f 35//5 34//5 22//5
f 22//5 23//5 35//5
f 36//53 35//53 23//53
f 23//53 24//53 36//53
f 25//11 36//11 24//11
f 24//11 13//11 25//11
f 15//67 14//65 13//65
f 15//67 13//65 24//68
f 16//73 15//67 24//68
f 24//68 23//65 22//74
f 24//68 22//74 21//77
f 16//73 24//68 21//77
f 16//73 21//77 20//83
f 17//88 16//73 20//83
f 18//91 17//88 20//83
f 18//91 20//83 19//92
f 30//23 31//23 32//23
f 34//23 35//23 36//23
f 33//23 34//23 36//23
f 25//23 26//23 27//23
f 36//23 25//23 27//23
f 36//23 27//23 28//23
f 33//23 36//23 28//23
f 32//23 33//23 28//23
f 32//23 28//23 29//23
f 30//23 32//23 29//23
f 50//5 49//5 39//5
f 39//5 40//5 50//5
f 55//29 54//29 44//29
f 44//29 45//29 55//29
f 56//5 55//5 45//5
f 45//5 46//5 56//5
f 47//53 56//53 46//53
f 46//53 37//53 47//53
f 41//151 40//17 39//149
f 41//151 39//149 38//152
f 42//157 41//151 38//152
f 42//157 38//152 37//158
f 43//158 42//157 37//158
f 43//158 37//158 46//164
f 44//169 43//158 46//164
f 44//169 46//164 45//169
f 54//23 55//23 56//23
f 49//23 50//23 51//23
f 48//23 49//23 51//23
f 48//23 51//23 52//23
f 47//23 48//23 52//23
f 47//23 52//23 53//23
f 56//23 47//23 53//23
f 54//23 56//23 53//23
f 65//5 64//5 58//5
f 58//5 59//5 65//5
f 66//53 65//53 59//53
f 59//53 60//53 66//53
f 63//11 68//11 62//11
f 62//11 57//11 63//11
f 61//65 60//216 59//65
f 61//65 59//65 58//65
f 61//65 58//65 57//65
f 61//65 57//65 62//65
f 67//23 68//23 63//23
f 67//23 63//23 64//23
f 67//23 64//23 65//23
f 67//23 65//23 66//23
f 90//11 89//11 70//11
f 70//11 71//11 90//11
f 95//53 94//53 75//53
f 75//53 76//53 95//53
f 99//53 98//53 79//53
f 79//53 80//53 99//53
f 103//53 102//53 83//53
f 83//53 84//53 103//53
f 104//11 103//11 84//11
f 84//11 85//11 104//11
f 105//29 104//29 85//29
f 85//29 86//29 105//29
f 106//5 105//5 86//5
f 86//5 87//5 106//5
f 88//5 106//5 87//5
f 87//5 69//5 88//5
f 72//289 71//92 70//287
f 72//289 70//287 69//290
f 72//289 69//290 87//169
f 73//298 72//289 87//169
f 73//298 87//169 86//299
f 74//304 73//298 86//299
f 85//307 84//305 83//305
f 85//307 83//305 82//308
f 86//299 85//307 82//308
f 86//299 82//308 81//314
f 81//314 80//92 79//92
f 81//314 79//92 78//320
f 86//299 81//314 78//320
f 86//299 78//320 77//326
f 74//304 86//299 77//326
f 75//334 74//304 77//326
f 75//334 77//326 76//334
f 94//23 95//23 96//23
f 98//23 99//23 100//23
f 97//23 98//23 100//23
f 102//23 103//23 104//23
f 101//23 102//23 104//23
f 101//23 104//23 105//23
f 100//23 101//23 105//23
f 97//23 100//23 105//23
f 96//23 97//23 105//23
f 89//23 90//23 91//23
f 88//23 89//23 91//23
f 106//23 88//23 91//23
f 106//23 91//23 92//23
f 105//23 106//23 92//23
f 105//23 92//23 93//23
f 96//23 105//23 93//23
f 94//23 96//23 93//23

v 160.29045104980469 -0.00000000000001 -108.69381713867188
v 160.29045104980469 0 72.28617095947266
v 160.29045104980469 76.19999694824219 -108.69381713867188
v 160.29045104980469 76.19999694824219 72.28617095947266
# 4 vertices

vn -1 0 0
vn -1 0 0
vn -1 0 0
vn -1 0 0
# 4 normals

vt 0.04545444250107 0.78984206914902 0
vt 0.95454543828964 0.78984206914902 0
vt 0.95454543828964 0.00015795230865 0
vt 0.04545444250107 0.00015795230865 0
# 4 texture coordinates

g Object001
usemtl Material #35
f 107/8/53 108/7/53 110/6/53 109/5/53

v 160.88383483886719 0 88.90072631835938
v 160.88383483886719 0 163.66621398925781
v 160.88383483886719 76.19999694824219 88.90072631835938
v 160.88383483886719 76.19999694824219 163.66621398925781
# 4 vertices

vn -1 0 0
vn -1 0 0
vn -1 0 0
vn -1 0 0
# 4 normals

vt 0.00302375177853 0.72078955173492 0
vt 0.86697626113892 0.72078955173492 0
vt 0.86697626113892 0.08921051025391 0
vt 0.00302375177853 0.08921051025391 0
# 4 texture coordinates

g Object002
usemtl Material #31
f 111/12/53 112/11/53 114/10/53 113/9/53

v 96.79910278320312 -0.00000000000001 -108.69381713867188
v 160.29045104980469 -0.00000000000001 -108.69381713867188
v 96.79910278320312 76.19999694824219 -108.69381713867188
v 160.29045104980469 76.19999694824219 -108.69381713867188
# 4 vertices

vn 0 0 1
vn 0 0 1
vn 0 0 1
vn 0 0 1
# 4 normals

vt 0 0.81000000238419 0
vt 1 0.81000000238419 0
vt 1 0 0
vt 0 0 0
# 4 texture coordinates

g Object003
usemtl Material #37
f 115/4/11 116/3/11 118/14/11 117/13/11

v 160.29045104980469 -0.00000000000002 -162.09774780273438
v 160.29045104980469 -0.00000000000002 -120.56135559082031
v 160.29045104980469 76.19999694824219 -162.09774780273438
v 160.29045104980469 76.19999694824219 -120.56135559082031
# 4 vertices

vn -1 0 0
vn -1 0 0
vn -1 0 0
vn -1 0 0
# 4 normals

g Object004
usemtl default
f 119//53 120//53 122//53 121//53

v 70.09714508056641 -0.00000000000002 -162.09774780273438
v 160.29045104980469 -0.00000000000002 -162.09774780273438
v 70.09714508056641 76.19999694824219 -162.09774780273438
v 160.29045104980469 76.19999694824219 -162.09774780273438
# 4 vertices

vn 0 0 1
vn 0 0 1
vn 0 0 1
vn 0 0 1
# 4 normals

g Object005
usemtl default
f 123//11 124//11 126//11 125//11

v 160.29045104980469 -0.00000000000002 -120.56135559082031
v 96.79910278320312 -0.00000000000002 -120.56135559082031
v 160.29045104980469 76.19999694824219 -120.56135559082031
v 96.79910278320312 76.19999694824219 -120.56135559082031
# 4 vertices

vn 0 0 -1
vn 0 0 -1
vn 0 0 -1
vn 0 0 -1
# 4 normals

g Object006
usemtl default
f 127//5 128//5 130//5 129//5

v 160.29045104980469 0 72.28617095947266
v 49.32895278930664 0 72.28617095947266
v 160.29045104980469 76.19999694824219 72.28617095947266
v 49.32895278930664 76.19999694824219 72.28617095947266
# 4 vertices

vn 0 0 -1
vn 0 0 -1
vn 0 0 -1
vn 0 0 -1
# 4 normals

vt -0.00000005960464 0.80000001192093 0
vt 1 0.80000001192093 0
vt 1 0 0
vt -0.00000005960464 0 0
# 4 texture coordinates

g Object007
usemtl Material #36
f 131/20/413 132/3/413 134/18/413 133/17/413

v 160.88383483886719 0 163.66621398925781
v 49.32895278930664 0 163.66621398925781
v 160.88383483886719 76.19999694824219 163.66621398925781
v 49.32895278930664 76.19999694824219 163.66621398925781
# 4 vertices

vn 0 0 -1
vn 0 0 -1
vn 0 0 -1
vn 0 0 -1
# 4 normals

vt 0.00440191244707 0.80615663528442 0
vt 0.95559811592102 0.80615663528442 0
vt 0.95559811592102 0.03384339809418 0
vt 0.00440191244707 0.03384339809418 0
# 4 texture coordinates

g Object008
usemtl Material #32
f 135/24/5 136/23/5 138/22/5 137/21/5

v 10.75952243804932 0 98.39466094970703
v 10.75952243804932 0 157.73236083984375
v 10.75952243804932 76.19999694824219 98.39466094970703
v 10.75952243804932 76.19999694824219 157.73236083984375
# 4 vertices

vn -1 0 0
vn -1 0 0
vn -1 0 0
vn -1 0 0
# 4 normals

g Object009
usemtl default
f 139//53 140//53 142//53 141//53

v -5.85503482818604 0 164.85289001464844
v -159.17582702636719 0 164.85289001464844
v -5.85503482818604 76.19999694824219 164.85289001464844
v -159.17582702636719 76.19999694824219 164.85289001464844
# 4 vertices

vn 0 0 -1
vn 0 0 -1
vn 0 0 -1
vn 0 0 -1
# 4 normals

g Object010
usemtl default
f 143//5 144//5 146//5 145//5

v 33.90122604370117 0 98.39466094970703
v 33.90122604370117 0 157.73236083984375
v 33.90122604370117 76.19999694824219 98.39466094970703
v 33.90122604370117 76.19999694824219 157.73236083984375
# 4 vertices

vn 1 0 0
vn 1 0 0
vn 1 0 0
vn 1 0 0
# 4 normals

g Object011
usemtl default
f 148//29 147//29 149//29 150//29

v 14.31969261169434 -0.00000000000001 26.59614753723145
v 14.31969261169434 -0.00000000000001 -70.71768951416016
v 14.31969261169434 76.19999694824219 26.59614753723145
v 14.31969261169434 76.19999694824219 -70.71768951416016
# 4 vertices

vn 1 0 0
vn 1 0 0
vn 1 0 0
vn 1 0 0
# 4 normals

g Object012
usemtl default
f 151//29 152//29 154//29 153//29

v 16.09983062744141 -0.00000000000001 -109.88056945800781
v 16.09983062744141 -0.00000000000002 -177.52554321289062
v 16.09983062744141 76.19999694824219 -109.88056945800781
v 16.09983062744141 76.19999694824219 -177.52554321289062
# 4 vertices

vn 1 0 0
vn 1 0 0
vn 1 0 0
vn 1 0 0
# 4 normals

vt 0 1 0
vt 0.81999999284744 1 0
vt 0.81999999284744 0 0
vt 0 0 0
# 4 texture coordinates

g Object013
usemtl Material #28
f 155/4/29 156/27/29 158/26/29 157/1/29

v 70.09714508056641 -0.00000000000001 -109.28719329833984
v 70.09714508056641 -0.00000000000002 -162.09774780273438
v 70.09714508056641 76.19999694824219 -109.28719329833984
v 70.09714508056641 76.19999694824219 -162.09774780273438
# 4 vertices

vn 1 0 0
vn 1 0 0
vn 1 0 0
vn 1 0 0
# 4 normals

g Object014
usemtl default
f 159//29 160//29 162//29 161//29

v -159.53977966308594 -0.00000000000001 10.57496452331543
v -159.53977966308594 -0.00000000000002 -160.91098022460938
v -159.53977966308594 76.19999694824219 10.57496452331543
v -159.53977966308594 76.19999694824219 -160.91098022460938
# 4 vertices

vn 1 0 0
vn 1 0 0
vn 1 0 0
vn 1 0 0
# 4 normals

vt 0 0.79000002145767 0
vt 0.93999999761581 0.79000002145767 0
vt 0.93999999761581 0 0
vt 0 0 0
# 4 texture coordinates

g Object015
usemtl Material #32
f 163/4/29 164/31/29 166/30/29 165/29/29

v -4.66836309432983 -0.00000000000001 10.57496452331543
v -159.53977966308594 -0.00000000000001 10.57496452331543
v -4.66836309432983 76.19999694824219 10.57496452331543
v -159.53977966308594 76.19999694824219 10.57496452331543
# 4 vertices

vn 0 0 -1
vn 0 0 -1
vn 0 0 -1
vn 0 0 -1
# 4 normals

vt 0 0.77999997138977 0
vt 1 0.77999997138977 0
vt 1 0 0
vt 0 0 0
# 4 texture coordinates

g Object016
usemtl Material #31
f 167/4/449 168/3/449 170/34/449 169/33/449

v -159.17582702636719 0 164.85289001464844
v -159.17582702636719 0 81.78010559082031
v -159.17582702636719 76.19999694824219 164.85289001464844
v -159.17582702636719 76.19999694824219 81.78010559082031
# 4 vertices

vn 1 0 0
vn 1 0 0
vn 1 0 0
vn 1 0 0
# 4 normals

g Object017
usemtl default
f 171//29 172//29 174//29 173//29

v -178.52783203125 -0.00000000000001 26.59614753723145
v 14.31969261169434 -0.00000000000001 26.59614753723145
v -178.52783203125 76.19999694824219 26.59614753723145
v 14.31969261169434 76.19999694824219 26.59614753723145
# 4 vertices

vn 0 0 1
vn 0 0 1
vn 0 0 1
vn 0 0 1
# 4 normals

g Object018
usemtl default
f 175//457 176//457 178//457 177//457

v -159.17582702636719 0 81.78010559082031
v -97.82846832275391 0 81.78010559082031
v -159.17582702636719 76.19999694824219 81.78010559082031
v -97.82846832275391 76.19999694824219 81.78010559082031
# 4 vertices

vn 0 0 1
vn 0 0 1
vn 0 0 1
vn 0 0 1
# 4 normals

g Object019
usemtl default
f 179//11 180//11 182//11 181//11

v -159.53977966308594 -0.00000000000002 -160.91098022460938
v -125.71728515625 -0.00000000000002 -160.91098022460938
v -159.53977966308594 76.19999694824219 -160.91098022460938
v -125.71728515625 76.19999694824219 -160.91098022460938
# 4 vertices

vn 0 0 1
vn 0 0 1
vn 0 0 1
vn 0 0 1
# 4 normals

g Object020
usemtl default
f 183//11 184//11 186//11 185//11

v -42.05111694335938 -0.00000000000002 -161.50436401367188
v -2.88823223114014 -0.00000000000002 -161.50436401367188
v -42.05111694335938 76.19999694824219 -161.50436401367188
v -2.88823223114014 76.19999694824219 -161.50436401367188
# 4 vertices

vn 0 0 1
vn 0 0 1
vn 0 0 1
vn 0 0 1
# 4 normals

g Object021
usemtl default
f 187//11 188//11 190//11 189//11

v -2.88823223114014 -0.00000000000002 -161.50436401367188
v -2.88823223114014 -0.00000000000001 -109.88056945800781
v -2.88823223114014 76.19999694824219 -161.50436401367188
v -2.88823223114014 76.19999694824219 -109.88056945800781
# 4 vertices

vn -1 0 0
vn -1 0 0
vn -1 0 0
vn -1 0 0
# 4 normals

g Object022
usemtl default
f 191//53 192//53 194//53 193//53

v -4.66836309432983 -0.00000000000001 -70.71768951416016
v -4.66836309432983 -0.00000000000001 10.57496452331543
v -4.66836309432983 76.19999694824219 -70.71768951416016
v -4.66836309432983 76.19999694824219 10.57496452331543
# 4 vertices

vn -1 0 0
vn -1 0 0
vn -1 0 0
vn -1 0 0
# 4 normals

vt 0 0.72999995946884 0
vt 1.00000011920929 0.72999995946884 0
vt 1.00000011920929 0 0
vt 0 0 0
# 4 texture coordinates

g Object023
usemtl Material #33
f 195/4/53 196/39/53 198/38/53 197/37/53

v -110.88277435302734 0 68.263671875
v -159.17582702636719 0 68.263671875
v -110.88277435302734 76.19999694824219 68.263671875
v -159.17582702636719 76.19999694824219 68.263671875
# 4 vertices

vn 0 0 -1
vn 0 0 -1
vn 0 0 -1
vn 0 0 -1
# 4 normals

g Object024
usemtl default
f 199//413 200//413 202//413 201//413

v -159.17582702636719 0 68.263671875
v -159.17582702636719 -0.00000000000001 26.59614753723145
v -159.17582702636719 76.19999694824219 68.263671875
v -159.17582702636719 76.19999694824219 26.59614753723145
# 4 vertices

vn 1 0 0
vn 1 0 0
vn 1 0 0
vn 1 0 0
# 4 normals

g Object025
usemtl default
f 203//29 204//29 206//29 205//29

v -110.88277435302734 0 50.33112335205078
v -110.88277435302734 0 68.263671875
v -110.88277435302734 76.19999694824219 50.33112335205078
v -110.88277435302734 76.19999694824219 68.263671875
# 4 vertices

vn -1 0 0
vn -1 0 0
vn -1 0 0
vn -1 0 0
# 4 normals

g Object026
usemtl default
f 207//53 208//53 210//53 209//53

v 55.85609817504883 -0.00000000000002 -178.11892700195312
v 55.85609817504883 -0.00000000000001 -109.28719329833984
v 55.85609817504883 76.19999694824219 -178.11892700195312
v 55.85609817504883 76.19999694824219 -109.28719329833984
# 4 vertices

vn -1 0 0
vn -1 0 0
vn -1 0 0
vn -1 0 0
# 4 normals

vt 0 1 0
vt 1 1 0
vt 1 0 0
vt 0 0 0
# 4 texture coordinates

g Object027
usemtl Material #29
f 211/4/53 212/3/53 214/2/53 213/1/53

v 49.32895278930664 0 88.90072631835938
v 160.88383483886719 0 88.90072631835938
v 49.32895278930664 76.19999694824219 88.90072631835938
v 160.88383483886719 76.19999694824219 88.90072631835938
# 4 vertices

vn 0 0 1
vn 0 0 1
vn 0 0 1
vn 0 0 1
# 4 normals

vt 0 1 0
vt 1 1 0
vt 1 0 0
vt 0 0 0
# 4 texture coordinates

g Object028
usemtl Material #33
f 215/4/11 216/3/11 218/2/11 217/1/11

